<?xml version="1.0" encoding="UTF-8"?>
<svg id="Layer_1" data-name="Layer 1" xmlns="http://www.w3.org/2000/svg" viewBox="0 0 1080 1080">
  <defs>
    <style>
      .cls-1 {
        fill: #fff4e7;
      }

      .cls-2 {
        fill: #f8ab1f;
      }
    </style>
  </defs>
  <path d="M404.16,284.26c24.25-23.78,45.66-50.55,71.61-72.69,158.8-135.47,417.04-127.3,502.18,85.41,47.46,118.59,13.16,221.83-5.06,340.52-10.43,67.95-7.57,142.38-55.12,197.24s-121.47,80.37-192.27,66.7c-51.91-10.02-94.39-44.19-142.71-63.06-120.16-46.93-253.33,2-378.18-4.9-145.86-8.06-214.11-166.02-140.39-286.74,55.08-90.21,162.66-130.92,247.1-187.75,32.98-22.19,64.47-46.92,92.85-74.75ZM687.77,134.97c-54.83,3.68-114.48,25.17-160.89,53.94-64.3,39.87-106.4,102.81-166.38,149.39C244.27,428.56-2.45,507.96,53.25,700.14c27.01,93.19,99.89,124.86,191.59,121.71,110.48-3.8,228.64-36.95,335.38,2.29,49.37,18.15,92.01,53.05,144.04,64.32,80.73,17.49,169.81-21.71,206.49-96.37,21.54-43.85,21.1-95.31,27.94-142.89,18.16-126.21,59.01-239.92.94-363.66-52.11-111.03-151.16-158.67-271.86-150.57Z"/>
  <path class="cls-1" d="M687.77,134.97c120.7-8.1,219.75,39.54,271.86,150.57,58.07,123.74,17.23,237.45-.94,363.66-6.85,47.58-6.4,99.03-27.94,142.89-36.68,74.67-125.77,113.86-206.49,96.37-52.03-11.27-94.67-46.17-144.04-64.32-106.74-39.24-224.91-6.09-335.38-2.29-91.7,3.15-164.58-28.52-191.59-121.71C-2.45,507.96,244.27,428.56,360.5,338.31c59.99-46.58,102.08-109.53,166.38-149.39,46.41-28.77,106.06-50.26,160.89-53.94ZM625.66,269.57c-159.24,13.36-251.4,191.21-179.23,332.46,88.61,173.43,345.7,163.96,418.22-17.11,65.82-164.36-65.3-329.92-238.99-315.35ZM316.28,432.57c-1.55-1.56-4.11-1.5-6.18-1.11-6.02,1.14-20.46,7.86-27.11,10.54-80.33,32.38-164.71,87.26-195.13,172.41-2.93,8.21-14.48,35.22,3.65,26.61,26.8-106.46,127.84-164.91,224.17-199.63,2.51-1.87,2.65-6.75.6-8.81ZM225.83,529.5c-4.93-3.12-16.63,6.15-20.92,9.11-11.12,7.67-24.34,19.96-33.28,30.14-3.61,4.11-23.64,30.38-23.06,33.49.31,1.62,3.89,4.61,5.69,4.79,5.85.57,16.05-18.96,20.02-23.98,7.99-10.12,19.09-21.02,29.13-29.11,4.43-3.57,23.56-15.26,23.92-18.84.18-1.78-.79-3.94-1.5-5.59Z"/>
  <path d="M625.66,269.57c173.69-14.57,304.81,150.98,238.99,315.35-72.52,181.07-329.61,190.55-418.22,17.11-72.17-141.25,19.99-319.1,179.23-332.46ZM486.9,638.57c77.22,90.23,218.87,101.34,308.58,22.12,121.14-106.98,86.14-304.08-63.48-363.64-210.81-83.91-393.73,167.84-245.1,341.52Z"/>
  <path d="M316.28,432.57c2.05,2.06,1.92,6.94-.6,8.81-96.33,34.72-197.37,93.17-224.17,199.63-18.13,8.61-6.58-18.39-3.65-26.61,30.42-85.15,114.8-140.03,195.13-172.41,6.64-2.68,21.09-9.4,27.11-10.54,2.06-.39,4.62-.45,6.18,1.11Z"/>
  <path d="M225.83,529.5c.71,1.65,1.68,3.81,1.5,5.59-.36,3.58-19.5,15.28-23.92,18.84-10.04,8.09-21.14,18.99-29.13,29.11-3.97,5.03-14.17,24.55-20.02,23.98-1.8-.18-5.38-3.17-5.69-4.79-.59-3.11,19.45-29.37,23.06-33.49,8.93-10.18,22.16-22.47,33.28-30.14,4.3-2.96,16-12.23,20.92-9.11Z"/>
  <path class="cls-2" d="M486.9,638.57c-148.64-173.68,34.29-425.43,245.1-341.52,149.62,59.56,184.61,256.66,63.48,363.64-89.7,79.22-231.35,68.11-308.58-22.12ZM682.61,316.1c-21.8,1.85-37.86,25.3-14.04,37.9,30.83,16.32,44.97,23.57,65.05,54.01,8.83,13.38,19.8,40.8,29.48,50.76,18.57,19.1,34.32-8.25,32.36-27.18-4.69-45.19-63.58-119.66-112.85-115.49ZM788.75,489.51c-10.71.42-22,8.11-25.94,18.17-11.83,30.21,25.94,56.96,48.84,33.31,19.43-20.07,4.44-52.55-22.9-51.47Z"/>
  <path d="M682.61,316.1c49.27-4.17,108.17,70.3,112.85,115.49,1.96,18.93-13.78,46.28-32.36,27.18-9.68-9.96-20.65-37.38-29.48-50.76-20.09-30.44-34.22-37.69-65.05-54.01-23.82-12.6-7.76-36.06,14.04-37.9ZM778.41,451.42c11.02-18.64-3.97-48.04-14.29-64.85-14.48-23.57-56.98-67.82-87.48-55.67-20.25,8.07,6.57,14.84,12.72,17.83,21.36,10.39,42.42,33.73,55.37,53.34,5.09,7.7,24.81,46.95,28.74,48.91,1.42.71,3.51,1.26,4.93.43Z"/>
  <path d="M788.75,489.51c27.34-1.07,42.33,31.41,22.9,51.47-22.9,23.65-60.67-3.09-48.84-33.31,3.94-10.06,15.23-17.75,25.94-18.17ZM777.73,507.7c-16.27,17.08,12.66,43.5,27.34,21.52,12.28-18.39-13.33-36.23-27.34-21.52Z"/>
  <path class="cls-1" d="M778.41,451.42c-1.42.82-3.51.27-4.93-.43-3.93-1.96-23.65-41.21-28.74-48.91-12.95-19.61-34.01-42.95-55.37-53.34-6.15-2.99-32.97-9.76-12.72-17.83,30.49-12.16,73,32.1,87.48,55.67,10.32,16.8,25.31,46.2,14.29,64.85Z"/>
  <path class="cls-1" d="M777.73,507.7c14.01-14.71,39.62,3.13,27.34,21.52-14.68,21.99-43.6-4.44-27.34-21.52Z"/>
</svg>