<?xml version="1.0" encoding="UTF-8"?>
<svg id="allergies" xmlns="http://www.w3.org/2000/svg" viewBox="0 0 500 500">
  <defs>
    <style>
      .cls-1 {
        fill: #fff4e7;
      }
    </style>
  </defs>
  <path class="cls-1" d="M120.5,140.5h335.01s13.99-8,7.99,28-37.63,111.5-37.63,111.5c0,0-5.37,16.5-40.37,24.5s-237,41-237,41v9h241.79s12.21,3,12.21,16-13,14-13,14h-241.47s-23.53-3.17-27.53-32.58,13-35.42,13-35.42l-42-186s-9-21-15-22-24-6-37-6h-20.22s-6.78-2-6.78-12,8-13,8-13l47-3s51,4,53,66Z"/>
  <circle class="cls-1" cx="156" cy="433" r="32"/>
  <circle class="cls-1" cx="358" cy="433" r="32"/>
</svg>